<svg data-v-fde0c5aa="" xmlns="http://www.w3.org/2000/svg" viewBox="0 0 300 300" class="iconLeft"><!----><defs data-v-fde0c5aa=""><!----></defs><rect data-v-fde0c5aa="" fill="#171717" x="0" y="0" width="300px" height="300px" class="logo-background-square"></rect><defs data-v-fde0c5aa=""><!----></defs><g data-v-fde0c5aa="" id="4ff47c2f-8eb4-411b-9694-6be455161aa5" fill="#FFFAF9" transform="matrix(7.2752605747242,0,0,7.2752605747242,154.07220297919483,93.72585848315623)"><path d="M3.64 3.63L3.64 11.49L4.96 11.79L4.96 12.60L0.50 12.60L0.50 11.79L1.82 11.49L1.82 3.63L0.50 3.33L0.50 2.52L4.96 2.52L4.96 3.33L3.64 3.63ZM10.08 6.06L10.08 6.06L10.08 6.06Q9.95 6.06 9.81 6.17L9.81 6.17L9.81 6.17Q9.67 6.29 9.54 6.45L9.54 6.45L9.54 6.45Q9.41 6.62 9.30 6.81L9.30 6.81L9.30 6.81Q9.20 7.00 9.14 7.14L9.14 7.14L9.14 7.14Q8.97 7.63 8.85 8.13L8.85 8.13L8.85 8.13Q8.72 8.62 8.72 9.35L8.72 9.35L8.72 11.55L10.23 11.82L10.23 12.60L5.87 12.60L5.87 11.82L6.94 11.55L6.94 5.88L5.87 5.61L5.87 5.04L8.30 5.04L8.61 6.89L8.67 6.89L8.67 6.89Q8.99 5.92 9.53 5.41L9.53 5.41L9.53 5.41Q10.07 4.90 10.74 4.90L10.74 4.90L10.74 4.90Q11.28 4.90 11.65 5.24L11.65 5.24L11.65 5.24Q12.01 5.59 12.01 6.16L12.01 6.16L12.01 6.16Q12.01 6.58 11.76 6.92L11.76 6.92L11.76 6.92Q11.51 7.27 11.05 7.27L11.05 7.27L11.05 7.27Q10.47 7.27 10.24 7.01L10.24 7.01L10.24 7.01Q10.01 6.75 10.01 6.44L10.01 6.44L10.01 6.44Q10.01 6.34 10.02 6.28L10.02 6.28L10.02 6.28Q10.04 6.22 10.08 6.06ZM12.36 11.87L12.36 11.87L12.36 11.87Q12.36 11.34 12.66 11.04L12.66 11.04L12.66 11.04Q12.95 10.74 13.45 10.74L13.45 10.74L13.45 10.74Q13.96 10.74 14.26 11.05L14.26 11.05L14.26 11.05Q14.56 11.35 14.56 11.86L14.56 11.86L14.56 11.86Q14.56 12.36 14.27 12.66L14.27 12.66L14.27 12.66Q13.97 12.95 13.44 12.95L13.44 12.95L13.44 12.95Q12.94 12.95 12.65 12.67L12.65 12.67L12.65 12.67Q12.36 12.39 12.36 11.87Z"></path></g><defs data-v-fde0c5aa=""><!----></defs><g data-v-fde0c5aa="" id="cfe0ee63-5279-4d29-b93d-7ae80d8b0699" stroke="none" fill="#FF7A02" transform="matrix(1.4609786846155346,0,0,1.4609786846155346,18.49439755222948,76.24718702252085)"><path d="M82.1 20.871c-.016-.801-.563-1.254-1.171-1.478l-28.733-7.502c-.676-.169-1.395-.363-2.068-.363a4.39 4.39 0 0 0-1.889.417l-.7.405-27.494 15.971c-.091.061-.179.127-.267.193-4.291 2.829-5.058 5.846-5.058 9.212V69.36c0 1.614.858 3.028 2.147 3.809l.03.019 27.661 15.958a1.987 1.987 0 0 0 3.02-1.695V55.457a4.447 4.447 0 0 0-1.962-3.688l-.618-.351L22.58 38.776c-1.725-1.019-1.88-3.013-1.364-4.21.743-1.711 2.565-2.041 3.832-1.732l23.328 5.976c.785.181 1.349.344 2.056.344.715 0 1.391-.166 1.992-.465l.4-.227 28.079-15.835c.511-.357 1.215-.961 1.197-1.756zm1.555 11.621l-6.916-3.805-5.536 3.207s6.349 3.5 7.419 4.225c1.295.876.785 2.164-.07 2.645L56.119 51.419l-.609.342-.01.009a4.437 4.437 0 0 0-1.961 3.688V87.45a1.983 1.983 0 0 0 2.934 1.741.676.676 0 0 0 .082-.046l27.651-15.953.039-.023a4.45 4.45 0 0 0 2.146-3.809V37.727c.002-2.76-.683-4.08-2.736-5.235z"></path></g><!----></svg>